<?xml version="1.0" encoding="UTF-8" standalone="no"?>
<!DOCTYPE svg PUBLIC "-//W3C//DTD SVG 1.1//EN"
 "http://www.w3.org/Graphics/SVG/1.1/DTD/svg11.dtd">
<!-- Generated by graphviz version 2.47.1 (20210515.0534)
 -->
<!-- Title: largeRelationshipsDiagram Pages: 1 -->
<svg width="292pt" height="199pt"
 viewBox="0.00 0.00 292.00 199.00" xmlns="http://www.w3.org/2000/svg" xmlns:xlink="http://www.w3.org/1999/xlink">
<g id="graph0" class="graph" transform="scale(1 1) rotate(0) translate(4 195)">
<title>largeRelationshipsDiagram</title>
<polygon fill="#ffffff" stroke="transparent" points="-4,4 -4,-195 288,-195 288,4 -4,4"/>
<text text-anchor="middle" x="73.5" y="-7.2" font-family="Helvetica,sans-Serif" font-size="11.00">Generated by SchemaSpy</text>
<!-- contacts -->
<g id="node1" class="node">
<title>contacts</title>
<g id="a_node1"><a xlink:href="../../tables/contacts.html" xlink:title="contacts" target="_top">
<polygon fill="#ffffff" stroke="transparent" points="171,-37 171,-187 276,-187 276,-37 171,-37"/>
<polygon fill="#f5f5f5" stroke="transparent" points="171.5,-165 171.5,-187 276.5,-187 276.5,-165 171.5,-165"/>
<polygon fill="none" stroke="black" points="171.5,-165 171.5,-187 276.5,-187 276.5,-165 171.5,-165"/>
<text text-anchor="start" x="176" y="-174.2" font-family="Helvetica,sans-Serif" font-weight="bold" font-size="11.00">contacts</text>
<text text-anchor="start" x="237.5" y="-173.2" font-family="Helvetica,sans-Serif" font-size="11.00">[table]</text>
<polygon fill="none" stroke="black" points="171.5,-143 171.5,-165 276.5,-165 276.5,-143 171.5,-143"/>
<image xlink:href="../../images/primaryKeys.png" width="11px" height="12px" preserveAspectRatio="xMinYMin meet" x="176.5" y="-160"/>
<text text-anchor="start" x="191.5" y="-151.2" font-family="Helvetica,sans-Serif" font-size="11.00">contact_id</text>
<polygon fill="none" stroke="black" points="171.5,-121 171.5,-143 276.5,-143 276.5,-121 171.5,-121"/>
<image xlink:href="../../images/foreignKeys.png" width="11px" height="12px" preserveAspectRatio="xMinYMin meet" x="176.5" y="-138"/>
<text text-anchor="start" x="191.5" y="-129.2" font-family="Helvetica,sans-Serif" font-size="11.00">company_id</text>
<polygon fill="none" stroke="black" points="171.5,-99 171.5,-121 276.5,-121 276.5,-99 171.5,-99"/>
<text text-anchor="start" x="191.5" y="-107.2" font-family="Helvetica,sans-Serif" font-size="11.00">contact_name</text>
<polygon fill="none" stroke="black" points="171.5,-77 171.5,-99 276.5,-99 276.5,-77 171.5,-77"/>
<text text-anchor="start" x="191.5" y="-85.2" font-family="Helvetica,sans-Serif" font-size="11.00">phone</text>
<polygon fill="none" stroke="black" points="171.5,-55 171.5,-77 276.5,-77 276.5,-55 171.5,-55"/>
<text text-anchor="start" x="191.5" y="-63.2" font-family="Helvetica,sans-Serif" font-size="11.00">email</text>
<polygon fill="#ffffff" stroke="transparent" points="171.5,-37 171.5,-55 202.5,-55 202.5,-37 171.5,-37"/>
<polygon fill="none" stroke="black" points="171.5,-37 171.5,-55 202.5,-55 202.5,-37 171.5,-37"/>
<text text-anchor="start" x="174.5" y="-43.2" font-family="Helvetica,sans-Serif" font-size="11.00">&lt; 1</text>
<polygon fill="#ffffff" stroke="transparent" points="202.5,-37 202.5,-55 258.5,-55 258.5,-37 202.5,-37"/>
<polygon fill="none" stroke="black" points="202.5,-37 202.5,-55 258.5,-55 258.5,-37 202.5,-37"/>
<text text-anchor="start" x="209.5" y="-43.2" font-family="Helvetica,sans-Serif" font-size="11.00">100 rows</text>
<polygon fill="#ffffff" stroke="transparent" points="258.5,-37 258.5,-55 276.5,-55 276.5,-37 258.5,-37"/>
<polygon fill="none" stroke="black" points="258.5,-37 258.5,-55 276.5,-55 276.5,-37 258.5,-37"/>
<text text-anchor="start" x="266.5" y="-43.2" font-family="Helvetica,sans-Serif" font-size="11.00"> &#160;</text>
</a>
</g>
</g>
<!-- companies -->
<g id="node2" class="node">
<title>companies</title>
<g id="a_node2"><a xlink:href="../../tables/companies.html" xlink:title="companies" target="_top">
<polygon fill="#ffffff" stroke="transparent" points="8,-81 8,-165 122,-165 122,-81 8,-81"/>
<polygon fill="#f5f5f5" stroke="transparent" points="8,-143 8,-165 122,-165 122,-143 8,-143"/>
<polygon fill="none" stroke="black" points="8,-143 8,-165 122,-165 122,-143 8,-143"/>
<text text-anchor="start" x="13" y="-152.2" font-family="Helvetica,sans-Serif" font-weight="bold" font-size="11.00">companies</text>
<text text-anchor="start" x="83" y="-151.2" font-family="Helvetica,sans-Serif" font-size="11.00">[table]</text>
<polygon fill="none" stroke="black" points="8,-121 8,-143 122,-143 122,-121 8,-121"/>
<image xlink:href="../../images/primaryKeys.png" width="11px" height="12px" preserveAspectRatio="xMinYMin meet" x="13" y="-138"/>
<text text-anchor="start" x="28" y="-129.2" font-family="Helvetica,sans-Serif" font-size="11.00">company_id</text>
<polygon fill="none" stroke="black" points="8,-99 8,-121 122,-121 122,-99 8,-99"/>
<text text-anchor="start" x="28" y="-107.2" font-family="Helvetica,sans-Serif" font-size="11.00">company_name</text>
<polygon fill="#ffffff" stroke="transparent" points="8,-81 8,-99 34,-99 34,-81 8,-81"/>
<polygon fill="none" stroke="black" points="8,-81 8,-99 34,-99 34,-81 8,-81"/>
<text text-anchor="start" x="11" y="-87.2" font-family="Helvetica,sans-Serif" font-size="11.00"> &#160;</text>
<polygon fill="#ffffff" stroke="transparent" points="34,-81 34,-99 93,-99 93,-81 34,-81"/>
<polygon fill="none" stroke="black" points="34,-81 34,-99 93,-99 93,-81 34,-81"/>
<text text-anchor="start" x="44" y="-87.2" font-family="Helvetica,sans-Serif" font-size="11.00">200 rows</text>
<polygon fill="#ffffff" stroke="transparent" points="93,-81 93,-99 122,-99 122,-81 93,-81"/>
<polygon fill="none" stroke="black" points="93,-81 93,-99 122,-99 122,-81 93,-81"/>
<text text-anchor="start" x="103" y="-87.2" font-family="Helvetica,sans-Serif" font-size="11.00">1 &gt;</text>
</a>
</g>
</g>
<!-- contacts&#45;&gt;companies -->
<g id="edge1" class="edge">
<title>contacts:w&#45;&gt;companies:e</title>
<path fill="none" stroke="black" d="M156.09,-132C145.32,-132 138.34,-132 123,-132"/>
<polygon fill="black" stroke="black" points="162.5,-132 170.5,-135.6 166.5,-132 170.5,-132 170.5,-132 170.5,-132 166.5,-132 170.5,-128.4 162.5,-132 162.5,-132"/>
<ellipse fill="none" stroke="black" cx="159.3" cy="-132" rx="3.2" ry="3.2"/>
</g>
</g>
</svg>
