<?xml version="1.0" encoding="UTF-8" standalone="no"?>
<!DOCTYPE svg PUBLIC "-//W3C//DTD SVG 1.1//EN"
 "http://www.w3.org/Graphics/SVG/1.1/DTD/svg11.dtd">
<!-- Generated by graphviz version 2.47.1 (20210515.0534)
 -->
<!-- Title: compactRelationshipsDiagram Pages: 1 -->
<svg width="292pt" height="151pt"
 viewBox="0.00 0.00 292.00 151.00" xmlns="http://www.w3.org/2000/svg" xmlns:xlink="http://www.w3.org/1999/xlink">
<g id="graph0" class="graph" transform="scale(1 1) rotate(0) translate(4 147)">
<title>compactRelationshipsDiagram</title>
<polygon fill="#ffffff" stroke="transparent" points="-4,4 -4,-147 288,-147 288,4 -4,4"/>
<text text-anchor="middle" x="73.5" y="-7.2" font-family="Helvetica,sans-Serif" font-size="11.00">Generated by SchemaSpy</text>
<!-- contacts -->
<g id="node1" class="node">
<title>contacts</title>
<g id="a_node1"><a xlink:href="../../tables/contacts.html" xlink:title="contacts" target="_top">
<polygon fill="#ffffff" stroke="transparent" points="171,-37 171,-139 276,-139 276,-37 171,-37"/>
<polygon fill="#f5f5f5" stroke="transparent" points="171.5,-117 171.5,-139 276.5,-139 276.5,-117 171.5,-117"/>
<polygon fill="none" stroke="black" points="171.5,-117 171.5,-139 276.5,-139 276.5,-117 171.5,-117"/>
<text text-anchor="start" x="176" y="-126.2" font-family="Helvetica,sans-Serif" font-weight="bold" font-size="11.00">contacts</text>
<text text-anchor="start" x="237.5" y="-125.2" font-family="Helvetica,sans-Serif" font-size="11.00">[table]</text>
<polygon fill="none" stroke="black" points="171.5,-95 171.5,-117 276.5,-117 276.5,-95 171.5,-95"/>
<image xlink:href="../../images/primaryKeys.png" width="11px" height="12px" preserveAspectRatio="xMinYMin meet" x="176.5" y="-112"/>
<text text-anchor="start" x="191.5" y="-103.2" font-family="Helvetica,sans-Serif" font-size="11.00">contact_id</text>
<polygon fill="none" stroke="black" points="171.5,-73 171.5,-95 276.5,-95 276.5,-73 171.5,-73"/>
<image xlink:href="../../images/foreignKeys.png" width="11px" height="12px" preserveAspectRatio="xMinYMin meet" x="176.5" y="-90"/>
<text text-anchor="start" x="191.5" y="-81.2" font-family="Helvetica,sans-Serif" font-size="11.00">company_id</text>
<polygon fill="none" stroke="black" points="171.5,-55 171.5,-73 276.5,-73 276.5,-55 171.5,-55"/>
<text text-anchor="start" x="174.5" y="-61.2" font-family="Helvetica,sans-Serif" font-size="11.00">...</text>
<polygon fill="#ffffff" stroke="transparent" points="171.5,-37 171.5,-55 202.5,-55 202.5,-37 171.5,-37"/>
<polygon fill="none" stroke="black" points="171.5,-37 171.5,-55 202.5,-55 202.5,-37 171.5,-37"/>
<text text-anchor="start" x="174.5" y="-43.2" font-family="Helvetica,sans-Serif" font-size="11.00">&lt; 1</text>
<polygon fill="#ffffff" stroke="transparent" points="202.5,-37 202.5,-55 258.5,-55 258.5,-37 202.5,-37"/>
<polygon fill="none" stroke="black" points="202.5,-37 202.5,-55 258.5,-55 258.5,-37 202.5,-37"/>
<text text-anchor="start" x="209.5" y="-43.2" font-family="Helvetica,sans-Serif" font-size="11.00">100 rows</text>
<polygon fill="#ffffff" stroke="transparent" points="258.5,-37 258.5,-55 276.5,-55 276.5,-37 258.5,-37"/>
<polygon fill="none" stroke="black" points="258.5,-37 258.5,-55 276.5,-55 276.5,-37 258.5,-37"/>
<text text-anchor="start" x="266.5" y="-43.2" font-family="Helvetica,sans-Serif" font-size="11.00"> &#160;</text>
</a>
</g>
</g>
<!-- companies -->
<g id="node2" class="node">
<title>companies</title>
<g id="a_node2"><a xlink:href="../../tables/companies.html" xlink:title="companies" target="_top">
<polygon fill="#ffffff" stroke="transparent" points="8,-37 8,-117 122,-117 122,-37 8,-37"/>
<polygon fill="#f5f5f5" stroke="transparent" points="8,-95 8,-117 122,-117 122,-95 8,-95"/>
<polygon fill="none" stroke="black" points="8,-95 8,-117 122,-117 122,-95 8,-95"/>
<text text-anchor="start" x="13" y="-104.2" font-family="Helvetica,sans-Serif" font-weight="bold" font-size="11.00">companies</text>
<text text-anchor="start" x="83" y="-103.2" font-family="Helvetica,sans-Serif" font-size="11.00">[table]</text>
<polygon fill="none" stroke="black" points="8,-73 8,-95 122,-95 122,-73 8,-73"/>
<image xlink:href="../../images/primaryKeys.png" width="11px" height="12px" preserveAspectRatio="xMinYMin meet" x="13" y="-90"/>
<text text-anchor="start" x="28" y="-81.2" font-family="Helvetica,sans-Serif" font-size="11.00">company_id</text>
<polygon fill="none" stroke="black" points="8,-55 8,-73 122,-73 122,-55 8,-55"/>
<text text-anchor="start" x="11" y="-61.2" font-family="Helvetica,sans-Serif" font-size="11.00">...</text>
<polygon fill="#ffffff" stroke="transparent" points="8,-37 8,-55 34,-55 34,-37 8,-37"/>
<polygon fill="none" stroke="black" points="8,-37 8,-55 34,-55 34,-37 8,-37"/>
<text text-anchor="start" x="11" y="-43.2" font-family="Helvetica,sans-Serif" font-size="11.00"> &#160;</text>
<polygon fill="#ffffff" stroke="transparent" points="34,-37 34,-55 93,-55 93,-37 34,-37"/>
<polygon fill="none" stroke="black" points="34,-37 34,-55 93,-55 93,-37 34,-37"/>
<text text-anchor="start" x="44" y="-43.2" font-family="Helvetica,sans-Serif" font-size="11.00">200 rows</text>
<polygon fill="#ffffff" stroke="transparent" points="93,-37 93,-55 122,-55 122,-37 93,-37"/>
<polygon fill="none" stroke="black" points="93,-37 93,-55 122,-55 122,-37 93,-37"/>
<text text-anchor="start" x="103" y="-43.2" font-family="Helvetica,sans-Serif" font-size="11.00">1 &gt;</text>
</a>
</g>
</g>
<!-- contacts&#45;&gt;companies -->
<g id="edge1" class="edge">
<title>contacts:w&#45;&gt;companies:e</title>
<path fill="none" stroke="black" d="M156.09,-84C145.32,-84 138.34,-84 123,-84"/>
<polygon fill="black" stroke="black" points="162.5,-84 170.5,-87.6 166.5,-84 170.5,-84 170.5,-84 170.5,-84 166.5,-84 170.5,-80.4 162.5,-84 162.5,-84"/>
<ellipse fill="none" stroke="black" cx="159.3" cy="-84" rx="3.2" ry="3.2"/>
</g>
</g>
</svg>
