<?xml version="1.0" encoding="UTF-8" standalone="no"?>
<!DOCTYPE svg PUBLIC "-//W3C//DTD SVG 1.1//EN"
 "http://www.w3.org/Graphics/SVG/1.1/DTD/svg11.dtd">
<!-- Generated by graphviz version 2.47.1 (20210515.0534)
 -->
<!-- Title: oneDegreeRelationshipsDiagram Pages: 1 -->
<svg width="366pt" height="157pt"
 viewBox="0.00 0.00 366.00 157.00" xmlns="http://www.w3.org/2000/svg" xmlns:xlink="http://www.w3.org/1999/xlink">
<g id="graph0" class="graph" transform="scale(1 1) rotate(0) translate(4 153)">
<title>oneDegreeRelationshipsDiagram</title>
<polygon fill="#ffffff" stroke="transparent" points="-4,4 -4,-153 362,-153 362,4 -4,4"/>
<text text-anchor="middle" x="73.5" y="-7.2" font-family="Helvetica,sans-Serif" font-size="11.00">Generated by SchemaSpy</text>
<!-- contacts -->
<g id="node1" class="node">
<title>contacts</title>
<g id="a_node1"><a xlink:href="../../tables/contacts.html" xlink:title="contacts" target="_top">
<polygon fill="#ffffff" stroke="transparent" points="245,-43 245,-145 350,-145 350,-43 245,-43"/>
<polygon fill="#f5f5f5" stroke="transparent" points="245.5,-123 245.5,-145 350.5,-145 350.5,-123 245.5,-123"/>
<polygon fill="none" stroke="black" points="245.5,-123 245.5,-145 350.5,-145 350.5,-123 245.5,-123"/>
<text text-anchor="start" x="250" y="-132.2" font-family="Helvetica,sans-Serif" font-weight="bold" font-size="11.00">contacts</text>
<text text-anchor="start" x="311.5" y="-131.2" font-family="Helvetica,sans-Serif" font-size="11.00">[table]</text>
<polygon fill="none" stroke="black" points="245.5,-101 245.5,-123 350.5,-123 350.5,-101 245.5,-101"/>
<image xlink:href="../../images/primaryKeys.png" width="11px" height="12px" preserveAspectRatio="xMinYMin meet" x="250.5" y="-118"/>
<text text-anchor="start" x="265.5" y="-109.2" font-family="Helvetica,sans-Serif" font-size="11.00">contact_id</text>
<polygon fill="none" stroke="black" points="245.5,-79 245.5,-101 350.5,-101 350.5,-79 245.5,-79"/>
<image xlink:href="../../images/foreignKeys.png" width="11px" height="12px" preserveAspectRatio="xMinYMin meet" x="250.5" y="-96"/>
<text text-anchor="start" x="265.5" y="-87.2" font-family="Helvetica,sans-Serif" font-size="11.00">company_id</text>
<polygon fill="none" stroke="black" points="245.5,-61 245.5,-79 350.5,-79 350.5,-61 245.5,-61"/>
<text text-anchor="start" x="248.5" y="-67.2" font-family="Helvetica,sans-Serif" font-size="11.00">...</text>
<polygon fill="#ffffff" stroke="transparent" points="245.5,-43 245.5,-61 276.5,-61 276.5,-43 245.5,-43"/>
<polygon fill="none" stroke="black" points="245.5,-43 245.5,-61 276.5,-61 276.5,-43 245.5,-43"/>
<text text-anchor="start" x="248.5" y="-49.2" font-family="Helvetica,sans-Serif" font-size="11.00">&lt; 1</text>
<polygon fill="#ffffff" stroke="transparent" points="276.5,-43 276.5,-61 332.5,-61 332.5,-43 276.5,-43"/>
<polygon fill="none" stroke="black" points="276.5,-43 276.5,-61 332.5,-61 332.5,-43 276.5,-43"/>
<text text-anchor="start" x="283.5" y="-49.2" font-family="Helvetica,sans-Serif" font-size="11.00">100 rows</text>
<polygon fill="#ffffff" stroke="transparent" points="332.5,-43 332.5,-61 350.5,-61 350.5,-43 332.5,-43"/>
<polygon fill="none" stroke="black" points="332.5,-43 332.5,-61 350.5,-61 350.5,-43 332.5,-43"/>
<text text-anchor="start" x="340.5" y="-49.2" font-family="Helvetica,sans-Serif" font-size="11.00"> &#160;</text>
</a>
</g>
</g>
<!-- companies -->
<g id="node2" class="node">
<title>companies</title>
<g id="a_node2"><a xlink:href="../../tables/companies.html" xlink:title="companies" target="_top">
<polygon fill="#ffffff" stroke="transparent" points="8,-37 8,-125 196,-125 196,-37 8,-37"/>
<polygon fill="#f5f5f5" stroke="transparent" points="10,-101 10,-123 194,-123 194,-101 10,-101"/>
<polygon fill="none" stroke="black" points="10,-101 10,-123 194,-123 194,-101 10,-101"/>
<text text-anchor="start" x="15" y="-110.2" font-family="Helvetica,sans-Serif" font-weight="bold" font-size="11.00">companies</text>
<text text-anchor="start" x="155" y="-109.2" font-family="Helvetica,sans-Serif" font-size="11.00">[table]</text>
<polygon fill="none" stroke="black" points="10,-79 10,-101 124,-101 124,-79 10,-79"/>
<image xlink:href="../../images/primaryKeys.png" width="11px" height="12px" preserveAspectRatio="xMinYMin meet" x="15" y="-96"/>
<text text-anchor="start" x="30" y="-87.2" font-family="Helvetica,sans-Serif" font-size="11.00">company_id</text>
<polygon fill="none" stroke="black" points="124,-79 124,-101 194,-101 194,-79 124,-79"/>
<text text-anchor="start" x="127" y="-87.2" font-family="Helvetica,sans-Serif" font-size="11.00">serial[10]</text>
<polygon fill="none" stroke="black" points="10,-57 10,-79 124,-79 124,-57 10,-57"/>
<text text-anchor="start" x="30" y="-65.2" font-family="Helvetica,sans-Serif" font-size="11.00">company_name</text>
<polygon fill="none" stroke="black" points="124,-57 124,-79 194,-79 194,-57 124,-57"/>
<text text-anchor="start" x="127" y="-65.2" font-family="Helvetica,sans-Serif" font-size="11.00">varchar[255]</text>
<polygon fill="#ffffff" stroke="transparent" points="10,-39 10,-57 52,-57 52,-39 10,-39"/>
<polygon fill="none" stroke="black" points="10,-39 10,-57 52,-57 52,-39 10,-39"/>
<text text-anchor="start" x="13" y="-45.2" font-family="Helvetica,sans-Serif" font-size="11.00">&lt; 0</text>
<polygon fill="#ffffff" stroke="transparent" points="52,-39 52,-57 124,-57 124,-39 52,-39"/>
<polygon fill="none" stroke="black" points="52,-39 52,-57 124,-57 124,-39 52,-39"/>
<text text-anchor="start" x="75" y="-45.2" font-family="Helvetica,sans-Serif" font-size="11.00">200 rows</text>
<polygon fill="#ffffff" stroke="transparent" points="124,-39 124,-57 194,-57 194,-39 124,-39"/>
<polygon fill="none" stroke="black" points="124,-39 124,-57 194,-57 194,-39 124,-39"/>
<text text-anchor="start" x="175" y="-45.2" font-family="Helvetica,sans-Serif" font-size="11.00">1 &gt;</text>
<polygon fill="none" stroke="black" stroke-width="2" points="9,-38 9,-124 195,-124 195,-38 9,-38"/>
</a>
</g>
</g>
<!-- contacts&#45;&gt;companies -->
<g id="edge1" class="edge">
<title>contacts:w&#45;&gt;companies:e</title>
<path fill="none" stroke="black" d="M229.84,-90C218.41,-90 211.16,-90 195,-90"/>
<polygon fill="black" stroke="black" points="236.5,-90 244.5,-93.6 240.5,-90 244.5,-90 244.5,-90 244.5,-90 240.5,-90 244.5,-86.4 236.5,-90 236.5,-90"/>
<ellipse fill="none" stroke="black" cx="233.3" cy="-90" rx="3.2" ry="3.2"/>
</g>
</g>
</svg>
