<?xml version="1.0" encoding="UTF-8" standalone="no"?>
<!DOCTYPE svg PUBLIC "-//W3C//DTD SVG 1.1//EN"
 "http://www.w3.org/Graphics/SVG/1.1/DTD/svg11.dtd">
<!-- Generated by graphviz version 2.47.1 (20210515.0534)
 -->
<!-- Title: oneDegreeRelationshipsDiagram Pages: 1 -->
<svg width="366pt" height="203pt"
 viewBox="0.00 0.00 366.00 203.00" xmlns="http://www.w3.org/2000/svg" xmlns:xlink="http://www.w3.org/1999/xlink">
<g id="graph0" class="graph" transform="scale(1 1) rotate(0) translate(4 199)">
<title>oneDegreeRelationshipsDiagram</title>
<polygon fill="#ffffff" stroke="transparent" points="-4,4 -4,-199 362,-199 362,4 -4,4"/>
<text text-anchor="middle" x="73.5" y="-7.2" font-family="Helvetica,sans-Serif" font-size="11.00">Generated by SchemaSpy</text>
<!-- contacts -->
<g id="node1" class="node">
<title>contacts</title>
<g id="a_node1"><a xlink:href="../../tables/contacts.html" xlink:title="contacts" target="_top">
<polygon fill="#ffffff" stroke="transparent" points="171,-37 171,-191 350,-191 350,-37 171,-37"/>
<polygon fill="#f5f5f5" stroke="transparent" points="173.5,-167 173.5,-189 348.5,-189 348.5,-167 173.5,-167"/>
<polygon fill="none" stroke="black" points="173.5,-167 173.5,-189 348.5,-189 348.5,-167 173.5,-167"/>
<text text-anchor="start" x="178" y="-176.2" font-family="Helvetica,sans-Serif" font-weight="bold" font-size="11.00">contacts</text>
<text text-anchor="start" x="309.5" y="-175.2" font-family="Helvetica,sans-Serif" font-size="11.00">[table]</text>
<polygon fill="none" stroke="black" points="173.5,-145 173.5,-167 278.5,-167 278.5,-145 173.5,-145"/>
<image xlink:href="../../images/primaryKeys.png" width="11px" height="12px" preserveAspectRatio="xMinYMin meet" x="178.5" y="-162"/>
<text text-anchor="start" x="193.5" y="-153.2" font-family="Helvetica,sans-Serif" font-size="11.00">contact_id</text>
<polygon fill="none" stroke="black" points="278.5,-145 278.5,-167 348.5,-167 348.5,-145 278.5,-145"/>
<text text-anchor="start" x="281.5" y="-153.2" font-family="Helvetica,sans-Serif" font-size="11.00">serial[10]</text>
<polygon fill="none" stroke="black" points="173.5,-123 173.5,-145 278.5,-145 278.5,-123 173.5,-123"/>
<image xlink:href="../../images/foreignKeys.png" width="11px" height="12px" preserveAspectRatio="xMinYMin meet" x="178.5" y="-140"/>
<text text-anchor="start" x="193.5" y="-131.2" font-family="Helvetica,sans-Serif" font-size="11.00">company_id</text>
<polygon fill="none" stroke="black" points="278.5,-123 278.5,-145 348.5,-145 348.5,-123 278.5,-123"/>
<text text-anchor="start" x="281.5" y="-131.2" font-family="Helvetica,sans-Serif" font-size="11.00">int4[10]</text>
<polygon fill="none" stroke="black" points="173.5,-101 173.5,-123 278.5,-123 278.5,-101 173.5,-101"/>
<text text-anchor="start" x="193.5" y="-109.2" font-family="Helvetica,sans-Serif" font-size="11.00">contact_name</text>
<polygon fill="none" stroke="black" points="278.5,-101 278.5,-123 348.5,-123 348.5,-101 278.5,-101"/>
<text text-anchor="start" x="281.5" y="-109.2" font-family="Helvetica,sans-Serif" font-size="11.00">varchar[255]</text>
<polygon fill="none" stroke="black" points="173.5,-79 173.5,-101 278.5,-101 278.5,-79 173.5,-79"/>
<text text-anchor="start" x="193.5" y="-87.2" font-family="Helvetica,sans-Serif" font-size="11.00">phone</text>
<polygon fill="none" stroke="black" points="278.5,-79 278.5,-101 348.5,-101 348.5,-79 278.5,-79"/>
<text text-anchor="start" x="281.5" y="-87.2" font-family="Helvetica,sans-Serif" font-size="11.00">varchar[25]</text>
<polygon fill="none" stroke="black" points="173.5,-57 173.5,-79 278.5,-79 278.5,-57 173.5,-57"/>
<text text-anchor="start" x="193.5" y="-65.2" font-family="Helvetica,sans-Serif" font-size="11.00">email</text>
<polygon fill="none" stroke="black" points="278.5,-57 278.5,-79 348.5,-79 348.5,-57 278.5,-57"/>
<text text-anchor="start" x="281.5" y="-65.2" font-family="Helvetica,sans-Serif" font-size="11.00">varchar[100]</text>
<polygon fill="#ffffff" stroke="transparent" points="173.5,-39 173.5,-57 210.5,-57 210.5,-39 173.5,-39"/>
<polygon fill="none" stroke="black" points="173.5,-39 173.5,-57 210.5,-57 210.5,-39 173.5,-39"/>
<text text-anchor="start" x="176.5" y="-45.2" font-family="Helvetica,sans-Serif" font-size="11.00">&lt; 1</text>
<polygon fill="#ffffff" stroke="transparent" points="210.5,-39 210.5,-57 278.5,-57 278.5,-39 210.5,-39"/>
<polygon fill="none" stroke="black" points="210.5,-39 210.5,-57 278.5,-57 278.5,-39 210.5,-39"/>
<text text-anchor="start" x="229.5" y="-45.2" font-family="Helvetica,sans-Serif" font-size="11.00">100 rows</text>
<polygon fill="#ffffff" stroke="transparent" points="278.5,-39 278.5,-57 348.5,-57 348.5,-39 278.5,-39"/>
<polygon fill="none" stroke="black" points="278.5,-39 278.5,-57 348.5,-57 348.5,-39 278.5,-39"/>
<text text-anchor="start" x="329.5" y="-45.2" font-family="Helvetica,sans-Serif" font-size="11.00">0 &gt;</text>
<polygon fill="none" stroke="black" stroke-width="2" points="172,-38 172,-190 349,-190 349,-38 172,-38"/>
</a>
</g>
</g>
<!-- companies -->
<g id="node2" class="node">
<title>companies</title>
<g id="a_node2"><a xlink:href="../../tables/companies.html" xlink:title="companies" target="_top">
<polygon fill="#ffffff" stroke="transparent" points="8,-87 8,-167 122,-167 122,-87 8,-87"/>
<polygon fill="#f5f5f5" stroke="transparent" points="8,-145 8,-167 122,-167 122,-145 8,-145"/>
<polygon fill="none" stroke="black" points="8,-145 8,-167 122,-167 122,-145 8,-145"/>
<text text-anchor="start" x="13" y="-154.2" font-family="Helvetica,sans-Serif" font-weight="bold" font-size="11.00">companies</text>
<text text-anchor="start" x="83" y="-153.2" font-family="Helvetica,sans-Serif" font-size="11.00">[table]</text>
<polygon fill="none" stroke="black" points="8,-123 8,-145 122,-145 122,-123 8,-123"/>
<image xlink:href="../../images/primaryKeys.png" width="11px" height="12px" preserveAspectRatio="xMinYMin meet" x="13" y="-140"/>
<text text-anchor="start" x="28" y="-131.2" font-family="Helvetica,sans-Serif" font-size="11.00">company_id</text>
<polygon fill="none" stroke="black" points="8,-105 8,-123 122,-123 122,-105 8,-105"/>
<text text-anchor="start" x="11" y="-111.2" font-family="Helvetica,sans-Serif" font-size="11.00">...</text>
<polygon fill="#ffffff" stroke="transparent" points="8,-87 8,-105 34,-105 34,-87 8,-87"/>
<polygon fill="none" stroke="black" points="8,-87 8,-105 34,-105 34,-87 8,-87"/>
<text text-anchor="start" x="11" y="-93.2" font-family="Helvetica,sans-Serif" font-size="11.00"> &#160;</text>
<polygon fill="#ffffff" stroke="transparent" points="34,-87 34,-105 93,-105 93,-87 34,-87"/>
<polygon fill="none" stroke="black" points="34,-87 34,-105 93,-105 93,-87 34,-87"/>
<text text-anchor="start" x="44" y="-93.2" font-family="Helvetica,sans-Serif" font-size="11.00">200 rows</text>
<polygon fill="#ffffff" stroke="transparent" points="93,-87 93,-105 122,-105 122,-87 93,-87"/>
<polygon fill="none" stroke="black" points="93,-87 93,-105 122,-105 122,-87 93,-87"/>
<text text-anchor="start" x="103" y="-93.2" font-family="Helvetica,sans-Serif" font-size="11.00">1 &gt;</text>
</a>
</g>
</g>
<!-- contacts&#45;&gt;companies -->
<g id="edge1" class="edge">
<title>contacts:w&#45;&gt;companies:e</title>
<path fill="none" stroke="black" d="M157.84,-134C146.41,-134 139.16,-134 123,-134"/>
<polygon fill="black" stroke="black" points="164.5,-134 172.5,-137.6 168.5,-134 172.5,-134 172.5,-134 172.5,-134 168.5,-134 172.5,-130.4 164.5,-134 164.5,-134"/>
<ellipse fill="none" stroke="black" cx="161.3" cy="-134" rx="3.2" ry="3.2"/>
</g>
</g>
</svg>
